<svg width="820" height="220" viewBox="0 0 820 220" xmlns="http://www.w3.org/2000/svg">
  <rect width="820" height="220" fill="#FFF4E8"/>
  <g transform="translate(30,25)">
    <circle cx="85" cy="85" r="80" fill="#FFFFFF" stroke="#FFD7BA" stroke-width="8"/>
    <path d="M35 110 Q85 35 135 110" fill="none" stroke="#FF6A00" stroke-width="14" stroke-linecap="round"/>
    <path d="M45 108 Q85 65 125 108" fill="none" stroke="#C94F00" stroke-width="7" stroke-linecap="round"/>
    <circle cx="68" cy="93" r="5" fill="#4CAF50"/>
    <circle cx="82" cy="86" r="5" fill="#4CAF50"/>
    <circle cx="97" cy="94" r="5" fill="#4CAF50"/>
    <path d="M108 95 q8 6 0 13 q-8 -6 0 -13Z" fill="#E53935"/>
    <path d="M58 54 C52 44,60 36,64 30" stroke="#FFD1B3" stroke-width="4" fill="none" stroke-linecap="round"/>
    <path d="M82 50 C76 40,84 31,89 25" stroke="#FFD1B3" stroke-width="4" fill="none" stroke-linecap="round"/>
    <path d="M106 54 C100 44,108 36,113 30" stroke="#FFD1B3" stroke-width="4" fill="none" stroke-linecap="round"/>
  </g>
  <text x="210" y="105" font-family="Poppins, Arial, sans-serif" font-size="64" font-weight="800" fill="#2A1B12">Tacos Fabian</text>
  <text x="212" y="145" font-family="Nunito, Arial, sans-serif" font-size="24" font-weight="700" fill="#C94F00">Street Food Premium - Hechos al momento</text>
</svg>
