<svg width="256" height="256" viewBox="0 0 256 256" xmlns="http://www.w3.org/2000/svg">
  <rect width="256" height="256" rx="52" fill="#FFF4E8"/>
  <path d="M50 150 Q128 52 206 150" fill="none" stroke="#FF6A00" stroke-width="18" stroke-linecap="round"/>
  <path d="M64 146 Q128 86 192 146" fill="none" stroke="#C94F00" stroke-width="9" stroke-linecap="round"/>
  <circle cx="101" cy="125" r="7" fill="#4CAF50"/>
  <circle cx="126" cy="114" r="7" fill="#4CAF50"/>
  <circle cx="150" cy="126" r="7" fill="#4CAF50"/>
  <path d="M163 125 q10 8 0 17 q-10 -8 0 -17Z" fill="#E53935"/>
  <path d="M92 72 C84 60,95 48,100 39" stroke="#FFD1B3" stroke-width="6" fill="none" stroke-linecap="round"/>
  <path d="M125 66 C117 54,128 42,133 34" stroke="#FFD1B3" stroke-width="6" fill="none" stroke-linecap="round"/>
  <path d="M158 72 C150 60,161 48,166 39" stroke="#FFD1B3" stroke-width="6" fill="none" stroke-linecap="round"/>
</svg>
